<mxfile host="65bd71144e">
    <diagram id="ZUpC8GgwEUyo23tTXTkj" name="第 1 页">
        <mxGraphModel dx="1065" dy="412" grid="1" gridSize="10" guides="1" tooltips="1" connect="1" arrows="1" fold="1" page="1" pageScale="1" pageWidth="827" pageHeight="1169" math="0" shadow="0">
            <root>
                <mxCell id="0"/>
                <mxCell id="1" parent="0"/>
                <mxCell id="2" value="exec&lt;br&gt;0" style="rounded=0;whiteSpace=wrap;html=1;fillColor=#0050ef;fontColor=#ffffff;strokeColor=#000000;" vertex="1" parent="1">
                    <mxGeometry x="40" y="160" width="40" height="60" as="geometry"/>
                </mxCell>
                <mxCell id="4" value="exec&lt;br&gt;1" style="rounded=0;whiteSpace=wrap;html=1;fillColor=#0050ef;fontColor=#ffffff;strokeColor=#000000;" vertex="1" parent="1">
                    <mxGeometry x="80" y="160" width="40" height="60" as="geometry"/>
                </mxCell>
                <mxCell id="5" value="..." style="rounded=0;whiteSpace=wrap;html=1;fillColor=#0050ef;fontColor=#ffffff;strokeColor=#000000;" vertex="1" parent="1">
                    <mxGeometry x="120" y="160" width="40" height="60" as="geometry"/>
                </mxCell>
                <mxCell id="6" value="exec&lt;br&gt;(n-1)" style="rounded=0;whiteSpace=wrap;html=1;fillColor=#0050ef;fontColor=#ffffff;strokeColor=#000000;" vertex="1" parent="1">
                    <mxGeometry x="160" y="160" width="40" height="60" as="geometry"/>
                </mxCell>
                <mxCell id="7" value="exec&lt;br&gt;n" style="rounded=0;whiteSpace=wrap;html=1;fillColor=#0050ef;fontColor=#ffffff;strokeColor=#000000;labelBorderColor=none;" vertex="1" parent="1">
                    <mxGeometry x="200" y="160" width="40" height="60" as="geometry"/>
                </mxCell>
                <mxCell id="11" value="" style="endArrow=classic;html=1;entryX=1;entryY=0.5;entryDx=0;entryDy=0;exitX=0;exitY=0.5;exitDx=0;exitDy=0;" edge="1" parent="1" source="2" target="7">
                    <mxGeometry width="50" height="50" relative="1" as="geometry">
                        <mxPoint x="280" y="190" as="sourcePoint"/>
                        <mxPoint x="170" y="160" as="targetPoint"/>
                        <Array as="points">
                            <mxPoint y="190"/>
                            <mxPoint y="250"/>
                            <mxPoint x="160" y="250"/>
                            <mxPoint x="280" y="250"/>
                            <mxPoint x="280" y="190"/>
                        </Array>
                    </mxGeometry>
                </mxCell>
            </root>
        </mxGraphModel>
    </diagram>
</mxfile>